<?xml version="1.0" encoding="UTF-8"?>
<!-- Copyright 2000-2023 JetBrains s.r.o. and contributors. Use of this source code is governed by the Apache 2.0 license. -->
<!-- Modifications Copyright 2025 Víctor Castilla Rodríguez -->
<!-- 2025-05-29: Added eject modifier -->
<svg width="16" height="16" version="1.1" viewBox="0 0 16 16" xmlns="http://www.w3.org/2000/svg">
    <path d="m2.6328 2.5c-0.56529 0-1.1328 0.54759-1.1328 1.3672v8.2656c0 0.8196 0.56752 1.3672 1.1328 1.3672h5.3672v-0.21289c0-0.0132 0.0012-0.02608 2e-3 -0.03906-0.0051-0.16915 0.04576-0.3436 0.16797-0.48633l3.8984-4.5547c0.11813-0.13793 0.27829-0.20708 0.43555-0.20703 0.15726 4.82e-5 0.31358 0.069028 0.43164 0.20703l1.5645 1.8281v-4.0352c0-0.82843-0.6716-1.5-1.5-1.5h-4.7461l-0.14844-0.1543-1.623-1.6914c-0.09429-0.0983-0.22511-0.1543-0.36133-0.1543z"
          color="#000000" fill="#ebecf0" style="-inkscape-stroke:none"/>
    <path d="m2.6328 2c-0.88788 0-1.6328 0.81657-1.6328 1.8672v8.2656c0 1.0506 0.74492 1.8672 1.6328 1.8672h5.3672v-0.71289c0-0.0132 0.0012-0.02608 2e-3 -0.03906-0.0025-0.08332 0.01071-0.16668 0.03711-0.24805h-5.4062c-0.24273-2e-6 -0.63286-0.27861-0.63286-0.86719v-8.2656c0-0.58858 0.39011-0.86719 0.63281-0.86719h3.4883l1.623 1.6914 0.29688 0.30859h4.959c0.55817 0 1 0.4418 1 1v3.4512l1 1.1699v-4.6211c0-1.0987-0.90137-2-2-2h-4.5332l-1.623-1.6914c-0.18844-0.19646-0.45046-0.30859-0.72266-0.30859z"
          color="#000000" fill="#6c707e" style="-inkscape-stroke:none"/>
    <path d="m12.165 9.6576c0.18377-0.21023 0.4893-0.21014 0.67295 2.094e-4l3.0304 3.4711c0.2854 0.3268 0.075191 0.87109-0.33648 0.87109h-6.0642c-0.4119 0-0.62205-0.54454-0.33648-0.87134z"
          clip-rule="evenodd" fill="#e55765" fill-rule="evenodd" stroke-width="1.2247"/>
    <rect x="9" y="15" width="7" height="1" ry=".5" fill="#e55765" stroke-width="1.0801" style="paint-order:normal"/>
</svg>
