<?xml version="1.0" encoding="UTF-8"?>
<!-- Copyright 2000-2022 JetBrains s.r.o. and contributors. Use of this source code is governed by the Apache 2.0 license. -->
<!-- Modifications Copyright 2025 Víctor Castilla Rodríguez -->
<!-- 2025-05-29: Added gray fill -->
<svg width="16" height="16" fill="none" version="1.1" viewBox="0 0 16 16" xmlns="http://www.w3.org/2000/svg">
    <g stroke="#6C707E" stroke-linecap="round" stroke-linejoin="round">
        <path d="m2.7929 13.793-0.58578-0.5858c-0.39053-0.3905-0.39053-1.0237 0-1.4142l6.5858-6.5858c0.39053-0.39053 1.0237-0.39053 1.4142 0l0.5858 0.58578c0.3905 0.39053 0.3905 1.0237 0 1.4142l-6.5858 6.5858c-0.39053 0.3905-1.0237 0.3905-1.4142 0z"/>
        <path d="m9.5 8.5-2-2"/>
        <path d="m10.5 2.5v-1"/>
        <path d="m13.5 5.5h1m-3 4 1 1m-6-6-1-1"/>
    </g>
    <path d="m3.2953 13.527c-0.11141-0.0553-0.77358-0.72008-0.82391-0.82716-0.057052-0.12137-0.05319-0.288 0.00958-0.41331 0.038234-0.07633 0.60183-0.65072 2.531-2.5795l2.4818-2.4814 1.2803 1.2803-2.4814 2.4818c-1.9288 1.9292-2.5032 2.4928-2.5795 2.531-0.12526 0.06275-0.30109 0.06619-0.41794 0.0082z"
          fill="#ebecf0" stroke-width=".019851"/>
</svg>
