<?xml version="1.0" encoding="UTF-8"?>
<!-- Copyright 2000-2022 JetBrains s.r.o. and contributors. Use of this source code is governed by the Apache 2.0 license. -->
<svg width="16" height="16" version="1.1" viewBox="0 0 16 16" xmlns="http://www.w3.org/2000/svg">
    <path d="m2.6333 2c-0.90206 0-1.6333 0.83574-1.6333 1.8667v8.2666c0 1.031 0.73127 1.8667 1.6333 1.8667h5.3667v-1.5c0-0.8284 0.67157-1.5 1.5-1.5h2v-1.5c0-0.82843 0.63682-1.495 1.4652-1.4998l0.034793-2.032e-4c0.70147 0.00381 1.0001 0.48845 1.0001 0.48845l1 1.1428-1e-4 -1.6313v-2c0-1.1046-0.8954-2-2-2h-4.5333l-1.6233-1.6922c-0.18859-0.1966-0.44923-0.30775-0.72166-0.30775z"
          fill="#ebecf0"/>
    <path d="m12.628 9.1464c0.1709-0.19527 0.4479-0.19527 0.6188 0l2.625 3c0.1708 0.1953 0.1708 0.5119 0 0.7072l-2.625 3c-0.1709 0.1952-0.4479 0.1952-0.6188 0-0.1708-0.1953-0.1708-0.5119 0-0.7072l1.8782-2.1464h-5.0688c-0.24162 0-0.4375-0.2239-0.4375-0.5 0-0.2762 0.19588-0.5 0.4375-0.5h5.0688l-1.8782-2.1464c-0.1708-0.19526-0.1708-0.51184 0-0.7071z"
          clip-rule="evenodd" fill="#3574F0" fill-rule="evenodd"/>
    <path d="m3.0002 3h3.1216l1.9185 2h4.9598c0.5523 0 1 0.44773 1 1l-1e-4 2.4884 1 1.1428 1e-4 -3.6312c0-1.1046-0.8954-2-2-2h-4.5334l-1.6233-1.6922c-0.1886-0.1966-0.44923-0.30775-0.72166-0.30775h-3.1216c-1.1046 0-2 0.8954-2 2l-1.9e-4 8c-2.7e-5 1.1045 0.89542 2 2 2h5l1.7e-4 -1h-5.0002c-0.5523 0-1-0.4477-1-1l1.9e-4 -8c2e-5 -0.55228 0.44773-0.99998 1-0.99998z"
          fill="#6C707E"/>
</svg>
