<svg width="16" height="16" viewBox="0 0 16 16" fill="none" xmlns="http://www.w3.org/2000/svg">
    <path d="M6.93344 15.08C6.60411 15.08 6.31161 15.0172 6.05594 14.8915C5.80027 14.7658 5.60094 14.5882 5.45794 14.3585C5.31494 14.1288 5.24344 13.8667 5.24344 13.572L5.23694 12.597H6.27694L6.28344 13.507C6.28777 13.6977 6.35494 13.8537 6.48494 13.975C6.61927 14.0963 6.79044 14.157 6.99844 14.157H7.75244V15.08H6.93344ZM5.73744 12.168C6.04511 12.168 6.29861 12.0337 6.49794 11.765C6.70161 11.4963 6.85327 11.0868 6.95294 10.5365C7.05261 9.98617 7.10244 9.29067 7.10244 8.45C7.10244 7.60933 7.05261 6.91383 6.95294 6.3635C6.85327 5.81317 6.70161 5.40367 6.49794 5.135C6.29861 4.86633 6.04511 4.732 5.73744 4.732C5.42977 4.732 5.17411 4.86633 4.97044 5.135C4.77111 5.40367 4.62161 5.81317 4.52194 6.3635C4.42227 6.91383 4.37244 7.60933 4.37244 8.45C4.37244 9.29067 4.42227 9.98617 4.52194 10.5365C4.62161 11.0868 4.77111 11.4963 4.97044 11.765C5.17411 12.0337 5.42977 12.168 5.73744 12.168ZM5.73744 13.156C5.17411 13.156 4.70827 12.9848 4.33994 12.6425C3.97594 12.3002 3.70294 11.7823 3.52094 11.089C3.34327 10.3957 3.25444 9.516 3.25444 8.45C3.25444 7.384 3.34327 6.50433 3.52094 5.811C3.70294 5.11333 3.97594 4.5955 4.33994 4.2575C4.70827 3.91517 5.17411 3.744 5.73744 3.744C6.30078 3.744 6.76444 3.91517 7.12844 4.2575C7.49677 4.59983 7.76977 5.11767 7.94744 5.811C8.12944 6.50433 8.22044 7.384 8.22044 8.45C8.22044 9.516 8.12944 10.3978 7.94744 11.0955C7.76977 11.7888 7.49677 12.3067 7.12844 12.649C6.76444 12.987 6.30078 13.156 5.73744 13.156ZM8.48745 4.9075V3.9H12.9074V4.9075H11.2434V13H10.1644V4.9075H8.48745Z"
          fill="#57965C"/>
</svg>
